<mxfile host="app.diagrams.net" modified="2022-10-12T13:52:05.807Z" agent="5.0 (Windows NT 10.0; Win64; x64) AppleWebKit/537.36 (KHTML, like Gecko) Chrome/105.0.0.0 Safari/537.36" etag="NC_KbL4GkgovWCgqAlW5" version="20.3.7" type="github">
  <diagram id="prtHgNgQTEPvFCAcTncT" name="Page-1">
    <mxGraphModel dx="2062" dy="1122" grid="1" gridSize="10" guides="1" tooltips="1" connect="1" arrows="1" fold="1" page="1" pageScale="1" pageWidth="827" pageHeight="1169" math="0" shadow="0">
      <root>
        <mxCell id="0" />
        <mxCell id="1" parent="0" />
        <mxCell id="dFTJhanhD0OR_avYJVKW-12" value="" style="rounded=1;whiteSpace=wrap;html=1;fillColor=default;" vertex="1" parent="1">
          <mxGeometry x="80" y="280" width="490" height="180" as="geometry" />
        </mxCell>
        <mxCell id="dFTJhanhD0OR_avYJVKW-10" value="" style="rounded=1;whiteSpace=wrap;html=1;fillColor=default;" vertex="1" parent="1">
          <mxGeometry x="80" y="700" width="490" height="180" as="geometry" />
        </mxCell>
        <mxCell id="dFTJhanhD0OR_avYJVKW-8" value="" style="rounded=1;whiteSpace=wrap;html=1;fillColor=default;" vertex="1" parent="1">
          <mxGeometry x="80" y="80" width="490" height="180" as="geometry" />
        </mxCell>
        <mxCell id="dFTJhanhD0OR_avYJVKW-9" value="" style="rounded=1;whiteSpace=wrap;html=1;fillColor=default;" vertex="1" parent="1">
          <mxGeometry x="80" y="480" width="490" height="180" as="geometry" />
        </mxCell>
        <mxCell id="dFTJhanhD0OR_avYJVKW-11" value="" style="rounded=1;whiteSpace=wrap;html=1;fillColor=default;" vertex="1" parent="1">
          <mxGeometry x="80" y="920" width="490" height="180" as="geometry" />
        </mxCell>
        <mxCell id="dFTJhanhD0OR_avYJVKW-1" value="Идея: подготовка словаря иностранных слов на основе конкретного текста." style="text;html=1;resizable=0;autosize=1;align=center;verticalAlign=middle;points=[];fillColor=none;strokeColor=none;rounded=0;" vertex="1" parent="1">
          <mxGeometry x="160" y="20" width="450" height="30" as="geometry" />
        </mxCell>
        <mxCell id="dFTJhanhD0OR_avYJVKW-2" value="Импорт текста" style="rounded=0;whiteSpace=wrap;html=1;fillColor=default;" vertex="1" parent="1">
          <mxGeometry x="110" y="100" width="120" height="60" as="geometry" />
        </mxCell>
        <mxCell id="dFTJhanhD0OR_avYJVKW-3" value="Разбиение по словам" style="rounded=0;whiteSpace=wrap;html=1;fillColor=default;" vertex="1" parent="1">
          <mxGeometry x="240" y="310" width="120" height="60" as="geometry" />
        </mxCell>
        <mxCell id="dFTJhanhD0OR_avYJVKW-4" value="Добавление в коллекцию исключая дубли, предлоги, спецсимволы и т.п." style="rounded=0;whiteSpace=wrap;html=1;fillColor=default;" vertex="1" parent="1">
          <mxGeometry x="370" y="330" width="120" height="60" as="geometry" />
        </mxCell>
        <mxCell id="dFTJhanhD0OR_avYJVKW-5" value="Нахождение перевода" style="rounded=0;whiteSpace=wrap;html=1;fillColor=default;" vertex="1" parent="1">
          <mxGeometry x="100" y="500" width="120" height="60" as="geometry" />
        </mxCell>
        <mxCell id="dFTJhanhD0OR_avYJVKW-6" value="Формирование конечного словаря" style="rounded=0;whiteSpace=wrap;html=1;fillColor=default;" vertex="1" parent="1">
          <mxGeometry x="100" y="720" width="120" height="60" as="geometry" />
        </mxCell>
        <mxCell id="dFTJhanhD0OR_avYJVKW-7" value="Экспорт словаря" style="rounded=0;whiteSpace=wrap;html=1;fillColor=default;" vertex="1" parent="1">
          <mxGeometry x="100" y="940" width="120" height="60" as="geometry" />
        </mxCell>
        <mxCell id="dFTJhanhD0OR_avYJVKW-13" value="Парсинг текста" style="rounded=0;whiteSpace=wrap;html=1;fillColor=default;" vertex="1" parent="1">
          <mxGeometry x="110" y="290" width="120" height="60" as="geometry" />
        </mxCell>
        <mxCell id="dFTJhanhD0OR_avYJVKW-14" value="Получение перевода с гугл или яндекс переводчика" style="rounded=0;whiteSpace=wrap;html=1;fillColor=default;" vertex="1" parent="1">
          <mxGeometry x="250" y="525" width="120" height="60" as="geometry" />
        </mxCell>
        <mxCell id="dFTJhanhD0OR_avYJVKW-15" value="Поиск готовых карточек в файлах для приложения Anki и т.п." style="rounded=0;whiteSpace=wrap;html=1;fillColor=default;" vertex="1" parent="1">
          <mxGeometry x="400" y="510" width="120" height="60" as="geometry" />
        </mxCell>
        <mxCell id="dFTJhanhD0OR_avYJVKW-16" value="Определение формы слова, нужен инфинитив" style="rounded=0;whiteSpace=wrap;html=1;fillColor=default;" vertex="1" parent="1">
          <mxGeometry x="130" y="570" width="120" height="60" as="geometry" />
        </mxCell>
        <mxCell id="dFTJhanhD0OR_avYJVKW-17" value="Поиск словосочетаний как опция" style="rounded=0;whiteSpace=wrap;html=1;fillColor=default;" vertex="1" parent="1">
          <mxGeometry x="414" y="570" width="120" height="60" as="geometry" />
        </mxCell>
        <mxCell id="dFTJhanhD0OR_avYJVKW-18" value="форма хранения?" style="rounded=0;whiteSpace=wrap;html=1;fillColor=default;" vertex="1" parent="1">
          <mxGeometry x="260" y="770" width="120" height="70" as="geometry" />
        </mxCell>
      </root>
    </mxGraphModel>
  </diagram>
</mxfile>
